<svg xmlns="http://www.w3.org/2000/svg" viewBox="0 0 453.67 593.44"><defs><style>.cls-1{fill:#fa7500;}.cls-2{fill:#f78b39;}.cls-3{fill:#030303;}.cls-4{fill:#c5c4c2;}.cls-5{fill:#fff;}.cls-6{fill:#040404;}.cls-7{fill:#030305;}.cls-8{fill:#434240;}.cls-9{fill:#010101;}.cls-10{fill:#c4c5bf;}.cls-11{fill:#cac9c7;}.cls-12{fill:#27276d;}.cls-13{fill:#fa8721;}.cls-14{fill:#f97400;}.cls-15{fill:none;stroke:#d86109;stroke-miterlimit:10;stroke-width:0.97px;}</style></defs><title>listening</title><g id="Layer_2" data-name="Layer 2"><g id="Layer_3" data-name="Layer 3"><path class="cls-1" d="M106,495.67S85.36,524.33,78.7,524.33c0,0-43.33,17.33-26.67,36.67a37.63,37.63,0,0,0,24,.67s11.33-3.33,10,9.33c0,0,6,28,28.67,20,0,0,16.67-6.67,16.67-10.67,0,0,3.33-8.67,8,1.33,0,0,11.33,10,21.33,7.33,0,0,14-9.33,8.67-30.67,0,0-2.67-30-9.33-42C160,516.33,139.36,490.33,106,495.67Z"/><path class="cls-2" d="M104.7,496s2,8.2-14.58,22c-6,5-13.76,7.62-20.42,11.71-4.56,2.8-15,8-15.86,14A23.94,23.94,0,0,0,71.75,552c4.2,0,8.2-2.12,12.75-1.53C96.87,552,96,564.76,102.64,572.36c7.67,8.83,17.88,6.34,26-.66,2.29-2,4.34-3.85,7.33-4.78,5.5-1.72,12.38,5.71,16.2,4,3.59-1.61-2.4-8.36-3.79-10.24-5.2-5.56-12-14-20-14.65,6.37.55,16.54-7.38,19.86-12.22,4.58-6.66,6-16.34,2-23.64-3.54-6.48-14-12.15-20.73-14.37C121.64,493.15,112.73,494.26,104.7,496Z"/><path class="cls-1" d="M279.76,496.67s20.67,28.67,27.33,28.67c0,0,43.33,17.33,26.67,36.67a37.63,37.63,0,0,1-24,.67s-11.33-3.33-10,9.33c0,0-6,28-28.67,20,0,0-16.67-6.67-16.67-10.67,0,0-3.33-8.67-8,1.33,0,0-11.33,10-21.33,7.33,0,0-14-9.33-8.67-30.67,0,0,2.67-30,9.33-42C225.76,517.33,246.43,491.33,279.76,496.67Z"/><path class="cls-2" d="M281.09,497s-2,8.2,14.58,22c6,5,13.76,7.62,20.42,11.71,4.56,2.8,15,8,15.86,14A23.94,23.94,0,0,1,314,553c-4.2,0-8.2-2.12-12.75-1.53-12.37,1.61-11.53,14.34-18.14,21.94-7.67,8.83-17.88,6.34-26-.66-2.3-2-4.34-3.85-7.33-4.78-5.5-1.72-12.38,5.71-16.21,4-3.59-1.61,2.4-8.36,3.79-10.24,5.2-5.56,12-14,20-14.65-6.37.55-16.54-7.38-19.86-12.22-4.58-6.66-6-16.34-2-23.64,3.54-6.48,14-12.15,20.73-14.37C264.15,494.15,273.06,495.26,281.09,497Z"/><path class="cls-3" d="M307.7,349c2.74.78,126-53,119.88-104.68-18.39-155.23-90.92-132-65.79-36.86,0,0-51.84,16.23-90.09,47.54C271.7,255,242,330.41,307.7,349Z"/><path class="cls-4" d="M315.62,337.72c1.69.39,106-68.69,106-89.76,0-27.68-4-71.14-22.13-93.73C384.13,135.1,375,153,374.82,170.3c-.18,15.73,11.35,33.61,7.19,49-4.56,16.84-32.07,37.17-44.19,48.84C337.77,268.17,275.11,328.5,315.62,337.72Z"/><path class="cls-5" d="M305.7,338c6,13.55,128.79-71.35,107.9-135.72-2.86-8.82-7.26-29.67-17.28-33.33-13.21-4.82-6.35,15.17-5.55,23.19,1.37,13.67,5.84,33.21-2,45.65-5.44,8.6-16.69,17.06-24,24.19-17.32,16.89-37.75,33.31-51.36,53.54C303.59,330.09,302.72,331.23,305.7,338Z"/><path class="cls-3" d="M359.66,161c1.23,18.81,51.07,67.26,2.74,151.07-2.85,4.94,49.61-39.25,51.41-41.47,9.58-11.78,16-24.06,13.38-39.39-4.62-27.23-13.08-67-31.55-88.33-3.91-4.52-8-8.78-14.37-9C378.56,133.74,358.1,137,359.66,161Z"/><path class="cls-3" d="M120.91,227.7c-2.91-1.65-21,15.95-23.48,18.1a293.5,293.5,0,0,0-55,64.56C29,331.58,10.52,360.08,2.53,383.74c-7.47,22.13,2.42,29.13,19,26.77,0,0,38-3.12,75.55-41.32,0,0,26.59-24.21,76.25-46.53C173.34,322.65,190.49,267.24,120.91,227.7Z"/><path class="cls-4" d="M146.4,283.75S72.11,266.4,24,377.05c-3,6.8-30.89,39.74,9.74,28,0,0,48.66-13.91,67.26-42.66,0,0,59-44,72.39-39.74C173.34,322.65,160.57,290.68,146.4,283.75Z"/><path class="cls-5" d="M146.84,318.83s-92.22-6.35-127,84c0,0-10.75,9.62,19.17.79a155.83,155.83,0,0,0,26.44-12.12c18.83-10.63,35.89-30,54.32-43,14.82-10.38,35.61-26.43,50.76-26.32C170.58,322.2,155,319,146.84,318.83Z"/><path class="cls-6" d="M123.83,246.87l.3-.47c5.61-8.92,13.69-15,22-21.34,24.77-18.91,55.51-32.4,86.83-21.7,36.79,12.57,62.34,43.87,73.54,80.13,7.53,24.36,14.34,49,20.14,73.79,8.14,34.81,19.14,71.62,1.48,104.73-12.91,24.22-33.34,42.13-60.26,49.32-13.27,3.54-27.15,4.45-40.85,4.06-14.36-.41-28.52-4.7-43-2.14-7.25,1.29-13.75,3.2-21.23,3.33C141,517,119.12,512,101.89,498,89,487.46,82.84,473.06,76,458.33c0,0-20.65-44.71,22-146C105.64,290.62,111.57,266.62,123.83,246.87Z"/><path class="cls-4" d="M146.08,251a11.35,11.35,0,0,1,1.16-3.17c6.51-11.82,26.16-21.91,38-26.87,14.94-6.29,32-6.86,45.71,2.82,6.65,4.71,11.93,11.13,16.52,17.8,4.19,6.09,9.23,11.67,12.48,18.36,4,8.15-.14,14.06-.27,22.5-.24,15.7,8.82,34,14.85,48.36,17.64,42.11,25.07,105.21-4.39,143.6-23,29.92-70.3,31.94-103.34,21.8-24.95-7.66-49.94-23.58-59-49.17-16.21-45.63,3-97,17.72-140.45,3.58-10.58,9-20.29,13.55-30.44,2-4.38,4.42-8.63,5.88-13.24C146.15,258.91,145.27,254.87,146.08,251Z"/><path class="cls-5" d="M161.87,261.92c-1.58,6.68.88,12.72,2.14,19.51a75.75,75.75,0,0,1,.71,18.77c-.92,13.79-4.69,27.18-9.36,40.13,0,.1-43.29,119.34,60,144.67,0,0,78.67,14,71.33-100.67,0,0-12.67-55.33-22.67-72.67a45.87,45.87,0,0,1-4.85-12.37c-2.33-9.81,1.41-19.94-.88-29.73-2.21-9.43-9.66-17.1-15.84-24.19-12.74-14.6-30.12-23.5-49.3-15.42a52.11,52.11,0,0,0-18.07,13.34c-4.08,4.49-10,9.82-12.41,16A19.1,19.1,0,0,0,161.87,261.92Z"/></g><g id="Layer_2-2" data-name="Layer 2"><path class="cls-7" d="M427.12,133.65s-2.28-38.76-23.91-51.83C403.22,81.83,423.58,98.84,427.12,133.65Z"/><path class="cls-7" d="M441.24,119.26s.25-29.91-20.14-38.66C421.1,80.61,438.46,91,441.24,119.26Z"/><path class="cls-7" d="M453.65,109.24s1.46-25.69-18.34-32.37A37.22,37.22,0,0,1,453.65,109.24Z"/><path class="cls-7" d="M416,147.19s-3.16-53.74-33.15-71.86C382.88,75.33,409.5,96.12,416,147.19Z"/><path class="cls-8" d="M186.08,14.26s19.54-.53,24.55,6.07c0,0,3.43,3.17-5.54,2.38,0,0-61.25,12.14-80.26,48,0,0,115.9-55.44,191.13-22.44,0,0-13.13-15.43-29.27-17.35,0,0-31.45-7.46-26.44-31,0,0-11.09-.53-12.67,17.69C247.59,17.69,219.6-3.43,186.08,14.26Z"/><path class="cls-9" d="M225.7,18c.85-.17,4.86,4.44,5.17,5.14,1.79,4.06-14.82,2.45-15.79,2.46-6.83.1-14.58,1.44-21.27,2.75-20.53,4-40.62,13.4-56.15,27.47A114.15,114.15,0,0,0,110.7,93s-13.5,24-5,74c0,0-16,23.5,0,47,0,0,17,37.5,109.5,48,0,0,62,7,123.5-27,0,0,39-25.5,18-66,0,0,13-46.5-11-87.5,0,0-21.5-36.5-59-50.5a91.53,91.53,0,0,0,12,7.5s-18-8-26-6c0,0-18-11.5-18-20,0,0-4.5,14-1,16.5,0,0-4.33-.43-4.48-.75C249.21,28.21,240.68,15,225.7,18Z"/><path class="cls-10" d="M121.2,147s-7,7.63,3,25.94c0,0-27,7.63-6.5,44.26,0,0,11,19.84,28.5,28.49,34.5,17.05,77.85,22.72,115.4,15.6,17.9-3.4,35.52-9.06,52.61-15.35,11.18-4.11,24.1-13.3,28-25.18,4-12.21-149.5,5.09-158.5-2.54S118.7,161.71,121.2,147Z"/><path class="cls-5" d="M200.7,183s37.5-58.5-4.5-113.5c0,0-31-31-66,21,0,0-27.5,48.5-2,82,.64.81-3,9.1-3.36,10.21-9.87,31.13,29.87,64.49,60,58.69,8.15-1.57,19.59-7.34,24.9-13.9,0,0,17-21,36,4.5,0,0,6,17,39.5,12,0,0,41.39-2.13,58-27,5.77-8.65,17-36.5-7-41,0,0,22.5-18-1-75,0,0-19-54.5-61-34,0,0-48,35.5-15,117.5C259.2,184.46,234.2,218.46,200.7,183Z"/><path class="cls-10" d="M196.7,183.13s28.36-49.86,67.5,4.11C264.2,187.24,221.09,200.09,196.7,183.13Z"/><path class="cls-7" d="M305.62,93s-3-26-32.8-13.72C272.82,79.26,293.17,76.62,305.62,93Z"/><path class="cls-7" d="M141.82,94s3-26,32.8-13.72C174.62,80.26,154.27,77.62,141.82,94Z"/><ellipse class="cls-11" cx="286.07" cy="136.84" rx="29.75" ry="42"/><ellipse class="cls-11" cx="177.07" cy="136.84" rx="29.75" ry="42"/><ellipse class="cls-12" cx="173.97" cy="129.84" rx="21.19" ry="27.33"/><ellipse class="cls-7" cx="175.07" cy="129.84" rx="13.93" ry="17.97"/><circle class="cls-5" cx="164.89" cy="134.79" r="4.4"/><ellipse class="cls-12" cx="282.8" cy="129.84" rx="21.19" ry="27.33"/><ellipse class="cls-7" cx="281.7" cy="129.84" rx="13.93" ry="17.97"/><circle class="cls-5" cx="291.88" cy="134.79" r="4.4"/><ellipse class="cls-11" cx="281.07" cy="136.84" rx="29.75" ry="42"/><ellipse class="cls-11" cx="172.07" cy="136.84" rx="29.75" ry="42"/><ellipse class="cls-12" cx="168.97" cy="129.84" rx="21.19" ry="27.33"/><ellipse class="cls-7" cx="170.07" cy="129.84" rx="13.93" ry="17.97"/><circle class="cls-5" cx="159.89" cy="134.79" r="4.4"/><ellipse class="cls-12" cx="277.8" cy="129.84" rx="21.19" ry="27.33"/><ellipse class="cls-7" cx="276.7" cy="129.84" rx="13.93" ry="17.97"/><circle class="cls-5" cx="286.88" cy="134.79" r="4.4"/><path class="cls-13" d="M181.7,198.46s41.51-66,98.5,2c-3.69-4.39-38.13,32.72-43.14,36.62-11.69,9.11-25.29-10.23-32.68-17.67C202.88,217.9,181.89,198.16,181.7,198.46Z"/><path class="cls-14" d="M230.7,215.46s37.5-19,49.5-15c0,0-16.78,8.24-43.14,36.62,0,0-5.36,7.38-17.36-2.12,0,0-31.5-32.5-38-36.5C181.7,198.46,189.7,197,230.7,215.46Z"/><path class="cls-15" d="M182.34,198.73s10.8-1.44,48.3,17c0,0,36.95-20,48.45-15.29"/></g></g></svg>