<svg xmlns="http://www.w3.org/2000/svg" viewBox="0 0 244.77 287.24"><defs><style>.cls-1{fill:#fa7500;}.cls-2{fill:#f78b39;}.cls-3{fill:#030303;}.cls-4{fill:#c5c4c2;}.cls-5{fill:#fff;}.cls-6{fill:#040404;}.cls-7{fill:#434240;}.cls-8{fill:#010101;}.cls-9{fill:#c4c5bf;}.cls-10{fill:#030305;}.cls-11{fill:#fa8721;}.cls-12{fill:#f97400;}.cls-13{fill:#73180d;}.cls-14{fill:#f1715f;}.cls-15{fill:#71a1db;stroke:#6e87c4;stroke-miterlimit:10;stroke-width:1.72px;}.cls-16{fill:#1f1c1d;}.cls-17{opacity:0.4;}.cls-18{fill:#f90d1e;}.cls-19{fill:#999ca1;opacity:0.2;}</style></defs><title>Kindness</title><g id="Layer_2" data-name="Layer 2"><g id="Layer_1-2" data-name="Layer 1"><path class="cls-1" d="M75.31,240.15S65.35,254,62.14,254c0,0-20.87,8.35-12.84,17.66a18.12,18.12,0,0,0,11.56.32s5.46-1.61,4.82,4.5c0,0,2.89,13.49,13.81,9.63,2.31-.93,8.28-6.78,9.7-6.83,3.77-.13,7,9.48,12.45,5.86,0,0,6.74-4.5,4.17-14.77,0,0-1.28-14.45-4.5-20.23C101.31,250.11,91.36,237.58,75.31,240.15Z"/><path class="cls-2" d="M74.66,240.31s.94,3.95-7,10.58c-2.89,2.41-6.63,3.67-9.84,5.64-2.2,1.35-7.22,3.83-7.64,6.75a11.53,11.53,0,0,0,8.62,4c2,0,4-1,6.14-.74,6,.78,5.55,6.9,8.74,10.57,3.7,4.25,8.61,3.05,12.55-.32a10,10,0,0,1,3.53-2.3c2.65-.83,6,2.75,7.81,1.92s-1.16-4-1.82-4.93c-2.5-2.68-5.8-6.72-9.64-7.06,3.07.26,8-3.55,9.57-5.88,2.21-3.21,2.9-7.87,1-11.38-1.7-3.12-6.76-5.85-10-6.92C82.82,238.94,78.53,239.47,74.66,240.31Z"/><path class="cls-1" d="M159,240.64s10,13.81,13.16,13.81c0,0,20.87,8.35,12.84,17.66a18.12,18.12,0,0,1-11.56.32s-5.46-1.61-4.82,4.5c0,0-2.89,13.49-13.81,9.63-3.83-1.53-7.47-6.32-11.42-5.33-2.77.69-6.55,7.17-10.74,4.37,0,0-6.74-4.5-4.17-14.77,0,0,1.28-14.45,4.5-20.23C133,250.59,142.93,238.07,159,240.64Z"/><path class="cls-2" d="M159.63,240.8s-.94,3.95,7,10.58c2.88,2.41,6.63,3.67,9.84,5.64,2.2,1.35,7.22,3.83,7.64,6.74a11.53,11.53,0,0,1-8.62,4c-2,0-4-1-6.14-.74-6,.78-5.55,6.91-8.74,10.57-3.7,4.25-8.61,3.05-12.55-.32a10,10,0,0,0-3.53-2.3c-2.65-.83-6,2.75-7.81,1.93s1.16-4,1.82-4.93c2.5-2.68,5.8-6.72,9.64-7.06-3.07.26-8-3.55-9.57-5.89-2.21-3.21-2.9-7.87-1-11.38,1.7-3.12,6.76-5.85,10-6.92C151.46,239.42,155.75,240,159.63,240.8Z"/><path class="cls-3" d="M148,115.29c.14-1.3,12.21-3.36,13.59-3.64a148.88,148.88,0,0,1,41.28-2.13c15.79,1.22,52.58,2.8,38.89,17.66,0,0-11.14,12.1-35.14,15.3,0,0-15.95,3-37.26,14.24C169.38,156.71,144.37,148.72,148,115.29Z"/><path class="cls-4" d="M162.06,137.89s25.27-18.87,66.7-18.24c0,0,22.82-.56,7.8,10.28,0,0-17.93,13-33.46,12.15,0,0-31.78,9-33.73,14.62C169.38,156.71,160.9,144.42,162.06,137.89Z"/><path class="cls-5" d="M174.93,146.78S196.81,114,239.37,124.7c0,0,6.38-1.25-4.75,6.69a65.19,65.19,0,0,1-21.45,9.44c-5.19,1.17-10.52,1.32-15.49,2.8-8,2.38-24.91,6.13-27.73,12A72.87,72.87,0,0,1,174.93,146.78Z"/><path class="cls-3" d="M91.38,122.15c-.5-1.21-12.66.2-14.07.31A148.91,148.91,0,0,0,37.09,132c-14.81,5.6-49.69,17.41-32.38,27.85,0,0,14.08,8.49,38,4.84,0,0,16.14-1.61,39.75,3.23C82.48,167.9,104.25,153.22,91.38,122.15Z"/><path class="cls-4" d="M84.23,147.78s-29.54-11-69.14,1.18c0,0-22.06,5.86-4.61,12.05,0,0,20.86,7.47,35.52,2.3,0,0,33-.25,36.47,4.59C82.48,167.9,87.17,153.72,84.23,147.78Z"/><path class="cls-5" d="M74.37,159.92s-30.2-25.38-68-3.15c0,0-6.48.59,6.43,5.09a65.18,65.18,0,0,0,23.24,3c5.31-.33,10.46-1.68,15.66-1.65,8.33,0,25.64-1.09,30,3.79A73,73,0,0,0,74.37,159.92Z"/><path class="cls-6" d="M78.67,125.89l.14-.22c2.65-4.22,6.47-7.11,10.38-10.09,11.71-8.94,26.24-15.32,41-10.26,17.39,5.94,29.47,20.74,34.77,37.88,3.56,11.52,6.78,23.14,9.52,34.88,3.85,16.46,9,33.86.7,49.51-6.1,11.45-15.76,19.92-28.49,23.31a67.4,67.4,0,0,1-19.31,1.92c-6.79-.2-13.48-2.22-20.3-1-3.43.61-6.5,1.51-10,1.57-10.31.19-20.64-2.17-28.79-8.79-6.11-5-9-11.78-12.23-18.74,0,0-9.76-21.14,10.4-69C70.07,146.57,72.87,135.22,78.67,125.89Z"/><path class="cls-4" d="M89.19,127.84a5.36,5.36,0,0,1,.54-1.5c3.08-5.59,12.37-10.36,17.94-12.7,7.06-3,15.15-3.24,21.61,1.33a32.94,32.94,0,0,1,7.81,8.42c2,2.88,4.36,5.51,5.9,8.68,1.87,3.85-.07,6.65-.13,10.64-.12,7.42,4.17,16.06,7,22.86,8.34,19.91,11.85,49.74-2.08,67.89C137,247.6,114.58,248.55,99,243.76c-11.79-3.62-23.61-11.15-27.91-23.24-7.66-21.57,1.43-45.87,8.38-66.39,1.69-5,4.24-9.59,6.41-14.39a58.13,58.13,0,0,0,2.78-6.26C89.22,131.58,88.8,129.67,89.19,127.84Z"/><path class="cls-5" d="M96.65,133c-.74,3.16.42,6,1,9.22A35.7,35.7,0,0,1,98,151.1a69.89,69.89,0,0,1-4.42,19s-20.46,56.42,28.36,68.39c0,0,37.19,6.62,33.72-47.59,0,0-6-26.16-10.71-34.35a21.64,21.64,0,0,1-2.29-5.85c-1.1-4.64.67-9.43-.42-14.05-1-4.46-4.57-8.09-7.49-11.44-6-6.9-14.24-11.11-23.31-7.29a24.63,24.63,0,0,0-8.54,6.31c-1.93,2.12-4.72,4.64-5.87,7.58A8.87,8.87,0,0,0,96.65,133Z"/><path class="cls-7" d="M81.22,19.89s9-2.09,11.95.49c0,0,1.89,1.14-2.34,1.63,0,0-27.22,11.42-32.62,29.85,0,0,48.43-36.64,86.4-28.47,0,0-7.54-5.91-15.2-5.27,0,0-15.27-.48-15.17-11.84,0,0-5.18.8-4.2,9.39C110,15.66,95.08,8.53,81.22,19.89Z"/><path class="cls-8" d="M99.92,17.86c.38-.16,2.67,1.6,2.88,1.89,1.21,1.71-6.63,2.54-7.08,2.63a59.92,59.92,0,0,0-9.59,3.29,55.88,55.88,0,0,0-23.41,18,53.92,53.92,0,0,0-9,19.77s-4,12.39,4.68,34.75c0,0-5.19,12.4,4.45,21.77,0,0,11.42,15.76,55.26,11.88,0,0,29.38-2.62,54.65-24.19,0,0,15.65-15.5,2.09-32.27,0,0,1.62-22.77-13.37-39.49,0,0-13.41-14.87-32.1-17.81a43.29,43.29,0,0,0,6.27,2.34s-9.09-2-12.61-.32c0,0-9.42-3.62-10.23-7.56,0,0-.76,6.91,1.1,7.74a11.43,11.43,0,0,1-2.15.08S106.58,15.07,99.92,17.86Z"/><path class="cls-9" d="M69.38,86.34s-2.14,4.12,3.68,11.77c0,0-10.33,5.79,1.53,21,0,0,6.38,8.27,14.36,10.81a71.16,71.16,0,0,0,48.71-2.42A127.39,127.39,0,0,0,157.73,116c4.19-2.84,8.61-8.18,9.07-14,.48-6-60.7,14.85-65.11,12.07S69.75,93.38,69.38,86.34Z"/><path class="cls-5" d="M105.25,96.38S115.63,66,92.61,44.2c0,0-16.09-11.67-26,15.45,0,0-7.08,24.85,6.91,38.15.35.32-.42,4.48-.46,5-1.24,15.27,18.78,27.28,31,22,3.31-1.43,7.62-5.1,9.25-8.59,0,0,5.23-11.2,15.7-1,0,0,4.15,7.35,17.89,2.14,0,0,17.36-4.57,22.06-17.53,1.63-4.51,3.76-18.38-6.85-18.38,0,0,7.84-10.29-7.52-34.65,0,0-13.22-23.6-29.1-10.46,0,0-17,20.6,4.75,55.72C130.22,92,122.82,109.92,105.25,96.38Z"/><path class="cls-10" d="M138.44,49.54s9.11-8.4,16,5.21C154.42,54.75,147.95,47.52,138.44,49.54Z"/><path class="cls-10" d="M81.94,62.55s-10.29-6.9-15,7.6C66.95,70.16,72.24,62,81.94,62.55Z"/><circle class="cls-5" cx="85.62" cy="90.74" r="1.89" transform="translate(-16.43 18.97) rotate(-11.54)"/><path class="cls-9" d="M104,96.65S115,76.53,131.89,92.87C131.89,92.87,115.47,102.26,104,96.65Z"/><path class="cls-11" d="M96.9,107s13-34.49,45.81-8.39c-2.12-1.68-14.57,18.76-16.52,21-4.56,5.32-12.68-2.34-16.81-5.09C108.55,114,97,106.85,96.9,107Z"/><path class="cls-12" d="M121,107.89s15.14-15.64,21.75-9.27c0,0-7,5.4-16.52,21,0,0-1.79,3.93-8.24.66,0,0-17.66-12.07-21.05-13.31C96.9,107,100.9,99.44,121,107.89Z"/><path class="cls-13" d="M102.79,107.5s17,9.8,19.8,11.88l13.32-18.64s-10.19,2.08-14.75,10.49C121.16,111.23,114.51,104.62,102.79,107.5Z"/><path class="cls-14" d="M121.36,113.36s3.68-8,8.37-3.88l-7.14,9.9-11-6.68S114.14,106.39,121.36,113.36Z"/><path class="cls-15" d="M98.86,5.17C63.57,12.38,36.58,26.1,38.56,35.81S70.76,47.56,106,40.35s62.28-20.92,60.29-30.64S134.14-2,98.86,5.17Zm5,24.26C78.69,34.57,57.35,34,56.15,28.11s18.2-14.77,43.32-19.9,46.46-4.54,47.66,1.32S128.94,24.3,103.81,29.44Z"/><path class="cls-16" d="M69.28,81.86l3.67,1L70.54,87s8.66-13,27.63-4.42c0,0-11.25-11.15-23.17-1.69Z"/><path class="cls-16" d="M156.15,64.12l-3,2.34L157,69.35S144,60.8,129.87,76.11c0,0,6-14.67,20.65-10.64Z"/><g class="cls-17"><ellipse class="cls-18" cx="153.28" cy="85.37" rx="8.34" ry="3.51" transform="translate(-22.14 81.9) rotate(-27.98)"/><ellipse class="cls-18" cx="84.73" cy="99.37" rx="3.51" ry="8.34" transform="translate(-21.51 175.3) rotate(-85.1)"/></g><path class="cls-19" d="M74.61,81.28S83,71.69,97.52,82C97.52,82,78,57.53,74.61,81.28Z"/><path class="cls-19" d="M151.25,65.61S139.79,60,130.39,75.1C130.39,75.1,139,45,151.25,65.61Z"/></g></g></svg>