<svg xmlns="http://www.w3.org/2000/svg" viewBox="0 0 139.37 273.92"><defs><style>.cls-1{fill:#fa7500;}.cls-2{fill:#f78b39;}.cls-3{fill:#040404;}.cls-4{fill:#c5c4c2;}.cls-5{fill:#fff;}.cls-6{fill:#030303;stroke:#9c9da0;stroke-miterlimit:10;stroke-width:0.47px;}.cls-7{fill:#434240;}.cls-8{fill:#010101;}.cls-9{fill:#c4c5bf;}.cls-10{fill:#cac9c7;}.cls-11{fill:#27276d;}.cls-12{fill:#030305;}.cls-13{fill:#f19b26;}.cls-14{fill:#250814;}.cls-15{fill:#ee7e00;}</style></defs><title>sad</title><g id="Layer_2" data-name="Layer 2"><g id="Layer_1-2" data-name="Layer 1"><path class="cls-1" d="M27.85,226.83s-10,13.81-13.17,13.81c0,0-20.87,8.35-12.84,17.66a18.13,18.13,0,0,0,11.56.32s5.46-1.61,4.82,4.5c0,0,2.89,13.49,13.81,9.63,2.31-.93,8.28-6.78,9.7-6.83,3.77-.13,7,9.48,12.45,5.86,0,0,6.74-4.5,4.17-14.77,0,0-1.28-14.45-4.5-20.23C53.86,236.79,43.9,224.26,27.85,226.83Z"/><path class="cls-2" d="M27.2,227s.94,3.95-7,10.58c-2.89,2.41-6.63,3.67-9.84,5.64-2.19,1.35-7.22,3.83-7.64,6.75a11.53,11.53,0,0,0,8.62,4c2,0,4-1,6.14-.74,6,.78,5.55,6.9,8.74,10.57,3.7,4.25,8.61,3.05,12.55-.32a10,10,0,0,1,3.53-2.3c2.65-.83,6,2.75,7.81,1.92s-1.16-4-1.82-4.93c-2.5-2.68-5.8-6.72-9.64-7.06,3.07.26,8-3.55,9.57-5.88,2.21-3.21,2.9-7.87,1-11.38-1.7-3.12-6.76-5.85-10-6.92C35.37,225.62,31.08,226.15,27.2,227Z"/><path class="cls-1" d="M111.52,227.31s10,13.81,13.16,13.81c0,0,20.87,8.35,12.84,17.66a18.12,18.12,0,0,1-11.56.32s-5.46-1.61-4.82,4.5c0,0-2.89,13.49-13.81,9.63-3.83-1.53-7.47-6.32-11.42-5.33-2.77.69-6.55,7.17-10.74,4.37,0,0-6.74-4.5-4.17-14.77,0,0,1.28-14.45,4.5-20.23C85.51,237.27,95.47,224.74,111.52,227.31Z"/><path class="cls-2" d="M112.17,227.47s-.94,3.95,7,10.58c2.88,2.41,6.63,3.67,9.84,5.64,2.2,1.35,7.22,3.83,7.64,6.74a11.53,11.53,0,0,1-8.62,4c-2,0-4-1-6.14-.74-6,.78-5.55,6.91-8.74,10.57-3.7,4.25-8.61,3.05-12.55-.32a10,10,0,0,0-3.53-2.3c-2.65-.83-6,2.75-7.81,1.93s1.16-4,1.82-4.93c2.5-2.68,5.8-6.72,9.64-7.06-3.07.26-8-3.55-9.57-5.89-2.21-3.21-2.9-7.87-1-11.38,1.7-3.12,6.76-5.85,10-6.92C104,226.1,108.29,226.64,112.17,227.47Z"/><path class="cls-3" d="M33.35,112l.14-.22c2.66-4.23,6.49-7.12,10.4-10.11C55.63,92.69,70.2,86.3,85,91.37c17.43,6,29.54,20.79,34.85,38,3.57,11.54,6.8,23.2,9.55,35,3.86,16.5,9.07,33.94.7,49.63-6.12,11.48-15.8,20-28.55,23.37a67.62,67.62,0,0,1-19.35,1.92c-6.8-.2-13.51-2.23-20.35-1-3.44.61-6.52,1.51-10.06,1.58C41.48,240,31.12,237.61,23,231c-6.12-5-9-11.81-12.26-18.78,0,0-9.78-21.18,10.42-69.18C24.74,132.71,27.54,121.34,33.35,112Z"/><path class="cls-4" d="M43.9,113.95a5.4,5.4,0,0,1,.55-1.5c3.08-5.6,12.39-10.38,18-12.73,7.08-3,15.19-3.25,21.66,1.34a33,33,0,0,1,7.83,8.43c2,2.89,4.37,5.53,5.91,8.7,1.88,3.86-.07,6.66-.13,10.66-.12,7.44,4.18,16.09,7,22.92,8.36,20,11.88,49.85-2.08,68-10.88,14.18-33.31,15.14-49,10.33C41.87,226.5,30,219,25.72,206.84c-7.68-21.62,1.44-46,8.4-66.55,1.7-5,4.25-9.62,6.42-14.42a58.66,58.66,0,0,0,2.79-6.27C43.93,117.69,43.51,115.77,43.9,113.95Z"/><path class="cls-5" d="M51.38,119.12c-.75,3.17.42,6,1,9.25a35.92,35.92,0,0,1,.34,8.89,70.11,70.11,0,0,1-4.44,19s-20.51,56.55,28.43,68.55c0,0,37.27,6.63,33.8-47.7,0,0-6-26.22-10.74-34.43a21.71,21.71,0,0,1-2.3-5.86c-1.1-4.65.67-9.45-.42-14.09-1-4.47-4.58-8.1-7.51-11.46-6-6.92-14.27-11.13-23.36-7.3a24.66,24.66,0,0,0-8.56,6.32c-1.93,2.13-4.73,4.65-5.88,7.6A9,9,0,0,0,51.38,119.12Z"/><path class="cls-6" d="M120.84,120.08c.68,1.27,19.72,12.67,9.14,33.31-5.46,10.65-17.54,16.52-28.47,23.05-9.31,5.57-21.82,13.22-32.11,16.41-9.63,3-12.55-1.36-11.35-8.5,0,0,1.76-16.37,18.67-32.16,0,0,10.74-11.21,20.92-32.41C97.63,119.78,104.53,89.61,120.84,120.08Z"/><path class="cls-6" d="M22.23,115.79c-.68,1.27-19.74,12.64-9.18,33.3,5.45,10.65,17.52,16.54,28.44,23.09,9.3,5.58,21.8,13.25,32.09,16.45,9.63,3,12.55-1.34,11.36-8.49,0,0-1.74-16.37-18.62-32.19,0,0-10.73-11.23-20.88-32.44C45.43,115.51,38.58,85.34,22.23,115.79Z"/><path class="cls-7" d="M51.48,6.76s9.26-.25,11.63,2.88c0,0,1.63,1.5-2.63,1.13,0,0-29,5.75-38,22.77,0,0,54.92-26.27,90.57-10.63,0,0-6.22-7.31-13.87-8.22,0,0-14.91-3.54-12.53-14.67,0,0-5.25-.25-6,8.38C80.62,8.38,67.37-1.63,51.48,6.76Z"/><path class="cls-8" d="M70.25,8.51c.4-.08,2.3,2.1,2.45,2.44.85,1.92-7,1.16-7.48,1.17a59.87,59.87,0,0,0-10.08,1.3,56,56,0,0,0-26.61,13A54.1,54.1,0,0,0,15.76,44s-6.4,11.37-2.37,35.07c0,0-7.58,11.13,0,22.27,0,0,8.06,17.77,51.89,22.74,0,0,29.38,3.32,58.52-12.79,0,0,18.48-12.08,8.53-31.27,0,0,6.16-22-5.21-41.46,0,0-10.19-17.3-28-23.93a43.31,43.31,0,0,0,5.68,3.55s-8.53-3.79-12.32-2.84c0,0-8.53-5.45-8.53-9.48,0,0-2.13,6.63-.47,7.82a11.52,11.52,0,0,1-2.12-.35S77.35,7.11,70.25,8.51Z"/><path class="cls-9" d="M20.74,69.64s-3.32,3.62,1.42,12.29c0,0-12.79,3.62-3.08,21,0,0,5.21,9.4,13.5,13.5a90.09,90.09,0,0,0,54.68,7.39,158.42,158.42,0,0,0,24.93-7.27c5.3-1.95,11.42-6.3,13.26-11.93,1.9-5.78-70.84,2.41-75.1-1.2S19.55,76.63,20.74,69.64Z"/><path class="cls-5" d="M57.93,92.62S76.18,59,56.27,32.91c0,0-14.69-14.69-31.27,10,0,0-13,23-.95,38.86.3.38-1.43,4.31-1.59,4.84-4.68,14.75,8,41.13,76,29,0,0,19.61-1,27.48-12.79,2.74-4.1,8.06-17.3-3.32-19.43,0,0,10.66-8.53-.48-35.54,0,0-9-25.83-28.9-16.11,0,0-22,23-6.4,61.84C86.84,93.57,74.52,95.94,57.93,92.62Z"/><path class="cls-9" d="M56.51,92.62s15.64-24.17,31.75,2.84C88.26,95.46,66.7,102.73,56.51,92.62Z"/><path class="cls-10" d="M46.34,47.73C41.91,50.26,38,55.38,36,59.67c-3.25,7.1-1.47,19.23,3.52,25.07,0,0,9-1.09,13.5,0,2,.48,5-3,6-4.38,5.74-7.67,5-25-1.5-31.59C54,45.3,50,45.61,46.34,47.73Z"/><ellipse class="cls-11" cx="49.83" cy="69.87" rx="10.04" ry="12.95"/><ellipse class="cls-12" cx="50.35" cy="69.87" rx="6.6" ry="8.52"/><circle class="cls-5" cx="47.03" cy="63.24" r="2.09"/><path class="cls-10" d="M102.55,49.15c4.43,2.53,8.38,7.66,10.35,11.95,3.25,7.1,1.47,19.23-3.52,25.07,0,0-9-1.08-13.5,0-2,.48-5-3-6-4.38-5.74-7.67-5-25,1.5-31.58C94.84,46.72,98.85,47,102.55,49.15Z"/><ellipse class="cls-11" cx="99.05" cy="71.3" rx="10.04" ry="12.95"/><ellipse class="cls-12" cx="98.53" cy="71.3" rx="6.6" ry="8.52"/><circle class="cls-5" cx="96.31" cy="64.66" r="2.09"/><path class="cls-12" d="M116.13,48s-11.22,5.34-13.75-9.73C102.37,38.28,106.43,47.12,116.13,48Z"/><path class="cls-12" d="M30.82,47.06S42,52.4,44.58,37.33C44.58,37.33,40.52,46.17,30.82,47.06Z"/><path class="cls-13" d="M45.6,102.79s32.27-4.86,52.71.63c0,0-.28-.51-.62-1.17C94,95.22,60.39,81.31,45.6,102.79Z"/><path class="cls-14" d="M48.33,100.37s17.36-1.5,23.16-1.45C77.14,99,94,100.66,94,100.66S74.33,88.18,48.33,100.37Z"/><path class="cls-15" d="M47.37,100.29s10-13.21,23.94-15.46c0,0,10.47,1.25,25.68,16.46,0,0-21.19-9.23-25.43-4C71.55,97.3,67.81,92.07,47.37,100.29Z"/></g></g></svg>