<svg xmlns="http://www.w3.org/2000/svg" viewBox="0 0 192.33 274.02"><defs><style>.cls-1{fill:#fa7500;}.cls-2{fill:#f78b39;}.cls-3{fill:#c5c4c2;}.cls-4{fill:#030303;}.cls-5{fill:#fff;}.cls-6{fill:#040404;}.cls-7{fill:#434240;}.cls-8{fill:#010101;}.cls-9{fill:#c4c5bf;}.cls-10{fill:#030305;}.cls-11{fill:#cac9c7;}.cls-12{fill:#fbf6d7;stroke:#141516;stroke-miterlimit:10;stroke-width:0.23px;}.cls-13{fill:#27276d;}.cls-14{fill:#fa8721;}.cls-15{fill:#f97400;}.cls-16{fill:#73180d;}.cls-17{fill:#f1715f;}.cls-18{fill:#1f1c1d;}.cls-19{fill:#999ca1;opacity:0.2;}</style></defs><title>excited</title><g id="Layer_2" data-name="Layer 2"><g id="Layer_1-2" data-name="Layer 1"><path class="cls-1" d="M44.07,227.41s-10,13.81-13.16,13.81c0,0-20.87,8.35-12.84,17.66a18.12,18.12,0,0,0,11.56.32s5.46-1.61,4.82,4.5c0,0,2.89,13.49,13.81,9.63,2.31-.93,8.28-6.78,9.7-6.83,3.77-.13,7,9.48,12.45,5.86,0,0,6.74-4.5,4.17-14.77,0,0-1.28-14.45-4.5-20.23C70.08,237.36,60.13,224.84,44.07,227.41Z"/><path class="cls-2" d="M43.43,227.57s.94,3.95-7,10.58c-2.89,2.41-6.63,3.67-9.84,5.64-2.2,1.35-7.22,3.83-7.64,6.75a11.53,11.53,0,0,0,8.63,4c2,0,4-1,6.14-.74,6,.78,5.55,6.9,8.74,10.57C46.13,268.6,51,267.4,55,264a10,10,0,0,1,3.53-2.3c2.65-.83,6,2.75,7.81,1.92s-1.16-4-1.82-4.93C62,256,58.7,252,54.85,251.66c3.07.26,8-3.55,9.57-5.88,2.21-3.21,2.9-7.87,1-11.38-1.7-3.12-6.76-5.85-10-6.92C51.59,226.19,47.3,226.73,43.43,227.57Z"/><path class="cls-3" d="M80.57,234.45s15.32,5.57,21.82,13,19-13.46,17.18-20.89S77.32,206.13,80.57,234.45Z"/><path class="cls-4" d="M124.68,115.06c0-1.47,8.32-5.07,9.27-5.53a69,69,0,0,1,28.62-6.81c11.05-.33,36.73-2.52,28,15.56,0,0-7.11,14.71-23.65,20.87,0,0-10.94,5-25.18,19.91C141.73,159.06,123.9,152.81,124.68,115.06Z"/><path class="cls-3" d="M135.64,138.81s16.59-23.8,45.46-27.54c0,0,15.85-3.08,6,10.65,0,0-11.79,16.47-22.64,17.18,0,0-21.64,13.48-22.7,20C141.73,159.06,135.18,146.23,135.64,138.81Z"/><path class="cls-5" d="M145.06,147.36s13.5-39,43.68-31.6c0,0,4.38-2.08-3,8-3.93,5-8.74,9.85-14.43,12.85-3.55,1.87-7.25,2.61-10.63,4.8-5.43,3.52-17,9.53-18.67,16.43C142.06,157.83,143.76,150.74,145.06,147.36Z"/><path class="cls-4" d="M55.57,109.14c-1.06-1.17-9,1.5-10.06,1.78A66.92,66.92,0,0,0,20.85,123c-6.29,4.9-14.88,11.4-19.16,18.26-4,6.42-.48,10.9,6.13,13.38,0,0,15,6.48,31.54.34,0,0,11.57-3.34,32.07-1.39C71.43,153.58,80.83,137.2,55.57,109.14Z"/><path class="cls-3" d="M62.79,134.28s-28.11-7.17-52.4,8.87c0,0-14,8,2.44,12,0,0,19.69,4.76,28.37-1.8,0,0,25.19-3.94,30.23.27C71.43,153.58,68,139.59,62.79,134.28Z"/><path class="cls-5" d="M61.26,146.91s-35.73-20.72-53.72,4.63c0,0-4.67,1.29,7.45,4.12a55.87,55.87,0,0,0,10.93,1c7.88,0,15.49-3.56,23.33-4.5,6.3-.75,15.21-2.33,21.12.75C70.37,152.87,64.45,148.61,61.26,146.91Z"/><path class="cls-6" d="M51.84,113.68l.14-.22c2.6-4.14,6.35-7,10.19-9.91,11.5-8.78,25.77-15,40.31-10.08,17.08,5.83,28.94,20.37,34.14,37.2,3.5,11.31,6.66,22.73,9.35,34.26,3.78,16.16,8.88,33.25.69,48.62-6,11.24-15.48,19.56-28,22.9a66.29,66.29,0,0,1-19,1.89c-6.67-.19-13.24-2.18-19.94-1-3.37.6-6.38,1.49-9.86,1.55-10.12.18-20.27-2.13-28.27-8.63-6-4.88-8.85-11.57-12-18.4,0,0-9.59-20.76,10.21-67.78C43.4,134,46.15,122.85,51.84,113.68Z"/><path class="cls-3" d="M62.17,115.6a5.28,5.28,0,0,1,.54-1.47c3-5.49,12.14-10.17,17.62-12.48,6.94-2.92,14.88-3.18,21.22,1.31a32.35,32.35,0,0,1,7.67,8.26c1.95,2.83,4.28,5.42,5.79,8.53,1.84,3.78-.07,6.53-.13,10.45-.11,7.29,4.09,15.77,6.89,22.45,8.19,19.55,11.64,48.85-2,66.67-10.66,13.89-32.64,14.83-48,10.12-11.58-3.56-23.19-10.95-27.4-22.83-7.52-21.19,1.41-45,8.23-65.2,1.66-4.91,4.16-9.42,6.29-14.13a57.67,57.67,0,0,0,2.73-6.15C62.21,119.27,61.8,117.39,62.17,115.6Z"/><path class="cls-5" d="M69.5,120.67c-.73,3.1.41,5.91,1,9.06a35.17,35.17,0,0,1,.33,8.71,68.71,68.71,0,0,1-4.35,18.63s-20.1,55.41,27.86,67.16c0,0,36.52,6.5,33.12-46.74,0,0-5.88-25.69-10.52-33.74a21.3,21.3,0,0,1-2.25-5.74c-1.08-4.56.65-9.26-.41-13.8-1-4.38-4.48-7.94-7.35-11.23-5.92-6.78-14-10.91-22.89-7.16A24.17,24.17,0,0,0,75.64,112c-1.89,2.08-4.63,4.56-5.76,7.45A8.81,8.81,0,0,0,69.5,120.67Z"/><path class="cls-7" d="M62,10.57S71,9.27,73.65,12c0,0,1.75,1.28-2.43,1.39,0,0-27.59,8.9-34.42,26.48,0,0,50.46-31.8,86.93-20.64,0,0-6.88-6.41-14.43-6.43,0,0-14.91-1.75-13.86-12.85,0,0-5.14.35-4.89,8.84C90.55,8.84,76.51.6,62,10.57Z"/><path class="cls-8" d="M80.47,10.14c.38-.12,2.48,1.79,2.66,2.09,1,1.77-6.7,1.93-7.15,2a58.71,58.71,0,0,0-9.66,2.41A54.88,54.88,0,0,0,41.91,32.32,53,53,0,0,0,31.48,50.92s-4.93,11.79,1.68,34.39c0,0-6.11,11.7,2.53,21.67,0,0,9.86,16.38,53.08,16.24a105.92,105.92,0,0,0,55.5-19.1s16.61-13.86,4.75-31.4c0,0,3.49-22.14-9.78-39.76,0,0-11.88-15.67-29.93-20.11a42.51,42.51,0,0,0,5.94,2.81s-8.73-2.72-12.31-1.37c0,0-8.92-4.33-9.38-8.25,0,0-1.32,6.7.43,7.66a11.24,11.24,0,0,1-2.11-.1S87.22,8,80.47,10.14Z"/><path class="cls-9" d="M39.23,75.25s-2.82,3.9,2.78,11.8c0,0-12,5-.62,20.76,0,0,6.14,8.56,14.68,11.6a88.26,88.26,0,0,0,54.06,1,155,155,0,0,0,23.43-9.91c4.94-2.5,10.4-7.43,11.55-13.12,1.19-5.84-68.67,10.39-73.23,7.36S38.87,82.19,39.23,75.25Z"/><path class="cls-5" d="M77.82,87.57s14.14-29-8.18-52.1c0,0-16-12.63-29.3,13.24,0,0-10.07,23.84,3.49,37.92.34.34-.9,4.36-1,4.89-2.87,14.89,17.25,28.13,30.81,23.84,3.67-1.16,8.64-4.44,10.73-7.75,0,0,6.71-10.6,16.84.14,0,0,3.68,7.52,18.86,3.41,0,0,19-3.21,25.29-15.57,2.2-4.3,5.87-17.75-5.43-18.53,0,0,9.41-9.51-4.5-34.53,0,0-11.69-24.11-30-12.4,0,0-20.22,19-.59,55C104.88,85.12,95.18,102.14,77.82,87.57Z"/><path class="cls-10" d="M56.09,49S44.73,44.63,43.39,59.55C43.39,59.55,46.68,50.6,56.09,49Z"/><ellipse class="cls-11" cx="59.43" cy="73.13" rx="13.81" ry="19.5" transform="translate(-8.07 7.38) rotate(-6.65)"/><ellipse class="cls-12" cx="61.52" cy="76.04" rx="12.07" ry="16.2" transform="translate(-8.4 7.64) rotate(-6.66)"/><ellipse class="cls-13" cx="62.21" cy="75.96" rx="8.94" ry="11.53" transform="translate(-8.39 7.72) rotate(-6.66)"/><ellipse class="cls-10" cx="62.67" cy="75.9" rx="5.88" ry="7.58" transform="translate(-8.38 7.78) rotate(-6.66)"/><circle class="cls-5" cx="58.65" cy="78.48" r="1.86" transform="translate(-8.72 7.35) rotate(-6.67)"/><path class="cls-9" d="M77.82,87.57s12.53-18.76,27.65-1.36C105.48,86.22,88.63,94,77.82,87.57Z"/><path class="cls-14" d="M70.06,97.13s15.59-32.66,45.53-4.38c-1.94-1.83-15.82,17.14-17.92,19.21-4.9,4.83-12.21-3.35-16-6.39C80.87,105,70.13,97,70.06,97.13Z"/><path class="cls-15" d="M93.53,100s16.12-14,22.06-7.25c0,0-7.29,4.7-17.92,19.21,0,0-2.07,3.69-8.12,0,0,0-16.28-13.29-19.49-14.79C70.06,97.13,74.61,90.05,93.53,100Z"/><path class="cls-16" d="M75.78,98.1s15.78,11,18.38,13.28l14.59-17.13s-10.14,1.18-15.31,9C93.45,103.28,87.49,96.26,75.78,98.1Z"/><path class="cls-17" d="M93.46,105.38s4.27-7.51,8.52-3.1l-7.82,9.09-10.22-7.45S87,98,93.46,105.38Z"/><path class="cls-10" d="M110,49.72s8.19-9.54,16.71,3.37C126.68,53.09,119.31,46.57,110,49.72Z"/><path class="cls-18" d="M129.53,62.32,126.79,65,131,67.48s-14.15-7.07-26.55,10c0,0,4.29-15.48,19.55-13.14Z"/><path class="cls-19" d="M124.76,64.4s-12.2-4.31-19.9,12C104.86,76.41,110,45.07,124.76,64.4Z"/><path class="cls-1" d="M103.73,194c-5.34,5.34-3.63,15.39-3.68,22.47-.07,9,0,18.36,1.9,27.23,2.7,12.63,21.4,20.9,30.59,9.22,2.8-3.55,4.47-7.87,6.88-11.68,3.49-5.52,26.7-37.2,8.42-39.42,0,0-8.76,3.13-10-4.38-.7-4.17-3.42-8.69-8.09-8.79-4.91-.11-7.74,4.46-12.08,5.85C112.77,196.1,107.71,190.06,103.73,194Z"/><path class="cls-2" d="M114.15,197.56c-3.61,4.62-2.32,13.2-2.27,19.26.06,7.72-.39,15.84,1.62,23.27,7,25.85,15,17.68,21.16,7.6,1.88-3.07,11.21-18,12.82-21.23,2.34-4.76,10.23-20.89-2.38-22.62,0,0-8.37.26-9.32-6.15-.53-3.56-2.53-6.5-5.75-6.55-3.38,0-5,5.32-7.94,6.55C118.74,199.07,116.84,194.13,114.15,197.56Z"/></g></g></svg>