<svg xmlns="http://www.w3.org/2000/svg" viewBox="0 0 182.09 268.92"><defs><style>.cls-1{fill:#fa7500;}.cls-2{fill:#f78b39;}.cls-3{fill:#030303;}.cls-4{fill:#c5c4c2;}.cls-5{fill:#fff;}.cls-6{fill:#040404;}.cls-7{fill:#434240;}.cls-8{fill:#010101;}.cls-9{fill:#c4c5bf;}.cls-10{fill:#030305;}.cls-11{fill:#cac9c7;}.cls-12{fill:#fbf6d7;stroke:#141516;stroke-miterlimit:10;stroke-width:0.23px;}.cls-13{fill:#27276d;}.cls-14{fill:#fa8721;}.cls-15{fill:#f97400;}.cls-16{fill:#73180d;}.cls-17{fill:#f1715f;}</style></defs><title>happy</title><g id="Layer_2" data-name="Layer 2"><g id="Layer_1-2" data-name="Layer 1"><path class="cls-1" d="M47.66,221.83s-10,13.81-13.17,13.81c0,0-20.87,8.35-12.84,17.66a18.13,18.13,0,0,0,11.56.32s5.46-1.61,4.82,4.5c0,0,2.89,13.49,13.81,9.63,2.31-.93,8.28-6.78,9.7-6.83,3.77-.13,7,9.48,12.45,5.86,0,0,6.74-4.5,4.17-14.77,0,0-1.28-14.45-4.5-20.23C73.67,231.79,63.71,219.26,47.66,221.83Z"/><path class="cls-2" d="M47,222s.94,3.95-7,10.58c-2.89,2.41-6.63,3.67-9.84,5.64-2.19,1.35-7.22,3.83-7.64,6.75a11.53,11.53,0,0,0,8.63,4c2,0,4-1,6.14-.74,6,.78,5.55,6.9,8.74,10.57,3.7,4.25,8.61,3.05,12.55-.32a10,10,0,0,1,3.53-2.3c2.65-.83,6,2.75,7.81,1.92s-1.16-4-1.82-4.93c-2.5-2.68-5.8-6.72-9.64-7.06,3.07.26,8-3.55,9.57-5.88,2.21-3.21,2.9-7.87,1-11.38-1.7-3.12-6.76-5.85-10-6.92C55.17,220.62,50.88,221.15,47,222Z"/><path class="cls-1" d="M131.33,222.31s10,13.81,13.17,13.81c0,0,20.87,8.35,12.84,17.66a18.12,18.12,0,0,1-11.56.32s-5.46-1.61-4.82,4.5c0,0-2.89,13.49-13.81,9.63-3.83-1.53-7.47-6.32-11.42-5.33-2.77.69-6.55,7.17-10.74,4.37,0,0-6.74-4.5-4.17-14.77,0,0,1.28-14.45,4.5-20.23C105.32,232.27,115.28,219.74,131.33,222.31Z"/><path class="cls-2" d="M132,222.47s-.94,3.95,7,10.58c2.89,2.41,6.63,3.67,9.84,5.64,2.19,1.35,7.22,3.83,7.64,6.74a11.53,11.53,0,0,1-8.62,4c-2,0-4-1-6.14-.74-6,.78-5.55,6.91-8.74,10.57-3.7,4.25-8.61,3.05-12.55-.32a10,10,0,0,0-3.53-2.3c-2.65-.83-6,2.75-7.81,1.93s1.16-4,1.82-4.93c2.5-2.68,5.8-6.72,9.64-7.06-3.07.26-8-3.55-9.57-5.89-2.21-3.21-2.9-7.87-1-11.38,1.7-3.12,6.76-5.85,10-6.92C123.81,221.1,128.1,221.64,132,222.47Z"/><path class="cls-3" d="M144.53,105.59c1.44-.45,7.75,9,8.64,10.22a132.55,132.55,0,0,1,18.14,33.73c3.91,10.65,9.33,25,10.61,36.18,1.19,10.47-3.84,12.62-10.94,10,0,0-16.47-5-29.41-25.43,0,0-9.43-13.21-29.22-27.79C112.35,142.5,110.06,116.42,144.53,105.59Z"/><path class="cls-4" d="M127.94,127.9s43.33,9.54,45.15,52.83c.14,3.34,9.85,20.48-7,11.43,0,0-20.15-10.77-25.62-25.23,0,0-21.83-25-28.16-24.43C112.35,142.5,121,129.61,127.94,127.9Z"/><path class="cls-5" d="M124.41,143.34s41.3,6,48,49.15c0,0,3.83,5.27-8.54-1.48a70.35,70.35,0,0,1-10.51-7.87c-7.3-6.48-13-16.67-19.88-24.13-5.55-6-13.2-15.05-19.89-16.45A81.73,81.73,0,0,1,124.41,143.34Z"/><path class="cls-3" d="M46.81,103c-1.38-.61-8.73,8.1-9.74,9.18a132.5,132.5,0,0,0-21.83,31.46C10.15,153.75,3.14,167.37.61,178.36c-2.37,10.27,2.39,13,9.74,11.17,0,0,16.93-3.1,32.09-21.94,0,0,10.86-12.06,32.17-24.32C74.61,143.28,79.84,117.62,46.81,103Z"/><path class="cls-4" d="M60.77,127S16.63,131.59,9.94,174.4c-.52,3.3-12.1,19.23,5.63,12.14,0,0,21.23-8.43,28.3-22.17,0,0,24.52-22.4,30.74-21.09C74.61,143.28,67.45,129.48,60.77,127Z"/><path class="cls-5" d="M62.54,142.74S20.83,144,9.26,186.15c0,0-4.4,4.8,8.65-.5A70.33,70.33,0,0,0,29.24,179c8-5.62,14.78-15.1,22.48-21.73,6.19-5.33,14.82-13.46,21.63-14.09A82,82,0,0,0,62.54,142.74Z"/><path class="cls-6" d="M56.18,113l.13-.21c2.53-4,6.18-6.79,9.91-9.63,11.18-8.54,25.06-14.63,39.2-9.8,16.61,5.67,28.14,19.8,33.2,36.17,3.4,11,6.47,22.1,9.09,33.31,3.67,15.72,8.64,32.33.67,47.28-5.83,10.93-15.05,19-27.21,22.26a64.45,64.45,0,0,1-18.44,1.83c-6.48-.19-12.88-2.12-19.39-1-3.27.58-6.21,1.44-9.58,1.5-9.84.18-19.71-2.07-27.49-8.4-5.83-4.74-8.6-11.25-11.68-17.89,0,0-9.32-20.18,9.93-65.91C48,132.76,50.65,121.93,56.18,113Z"/><path class="cls-4" d="M66.23,114.88a5.16,5.16,0,0,1,.52-1.43c2.94-5.33,11.81-9.89,17.14-12.13,6.75-2.84,14.47-3.1,20.64,1.27a31.47,31.47,0,0,1,7.46,8c1.89,2.75,4.17,5.27,5.63,8.29,1.79,3.68-.06,6.35-.12,10.16-.11,7.09,4,15.33,6.7,21.83,8,19,11.32,47.5-2,64.83-10.37,13.51-31.74,14.42-46.65,9.84C64.3,222.12,53,214.93,48.91,203.38c-7.32-20.6,1.37-43.8,8-63.41,1.62-4.78,4-9.16,6.12-13.74a55.85,55.85,0,0,0,2.65-6C66.26,118.45,65.86,116.62,66.23,114.88Z"/><path class="cls-5" d="M73.36,119.81c-.71,3,.4,5.74,1,8.81a34.23,34.23,0,0,1,.32,8.47,66.79,66.79,0,0,1-4.23,18.12s-19.54,53.88,27.09,65.31c0,0,35.51,6.32,32.2-45.45,0,0-5.72-25-10.23-32.81a20.68,20.68,0,0,1-2.19-5.58c-1-4.43.64-9-.4-13.42-1-4.26-4.36-7.72-7.15-10.92-5.75-6.59-13.6-10.61-22.26-7a23.51,23.51,0,0,0-8.16,6c-1.84,2-4.5,4.43-5.6,7.24A8.7,8.7,0,0,0,73.36,119.81Z"/><path class="cls-7" d="M76.61,6.44s8.82-.24,11.08,2.74c0,0,1.55,1.43-2.5,1.07,0,0-27.65,5.48-36.23,21.69,0,0,52.32-25,86.29-10.13,0,0-5.92-7-13.21-7.83,0,0-14.2-3.37-11.94-14,0,0-5-.24-5.72,8C104.38,8,91.75-1.55,76.61,6.44Z"/><path class="cls-8" d="M94.5,8.11c.38-.08,2.19,2,2.33,2.32.81,1.83-6.69,1.11-7.13,1.11a57.29,57.29,0,0,0-9.6,1.24,53.38,53.38,0,0,0-25.35,12.4A51.55,51.55,0,0,0,42.58,42s-6.1,10.84-2.26,33.41c0,0-7.22,10.61,0,21.22,0,0,7.67,16.93,49.43,21.67a103,103,0,0,0,55.75-12.19s17.61-11.51,8.13-29.8c0,0,5.87-21-5-39.5,0,0-9.71-16.48-26.64-22.8a41.29,41.29,0,0,0,5.42,3.39s-8.13-3.61-11.74-2.71c0,0-8.13-5.19-8.13-9,0,0-2,6.32-.45,7.45a11,11,0,0,1-2-.34S101.26,6.77,94.5,8.11Z"/><path class="cls-9" d="M47.32,66.34s-3.16,3.45,1.35,11.71c0,0-12.19,3.44-2.94,20,0,0,5,9,12.87,12.86a85.83,85.83,0,0,0,52.1,7A150.65,150.65,0,0,0,134.45,111c5-1.86,10.88-6,12.64-11.37s-67.49,2.3-71.55-1.15S46.19,73,47.32,66.34Z"/><path class="cls-5" d="M83.21,82.6s16.93-26.41-2-51.24c0,0-14-14-29.8,9.48,0,0-12.41,21.9-.9,37,.29.36-1.36,4.11-1.52,4.61C44.51,96.52,62.45,111.58,76,109c3.68-.71,8.85-3.31,11.24-6.27,0,0,7.67-9.48,16.25,2,0,0,2.71,7.68,17.83,5.42,0,0,18.69-1,26.18-12.19,2.61-3.9,7.67-16.48-3.16-18.51,0,0,10.16-8.13-.45-33.86,0,0-8.58-24.6-27.54-15.35,0,0-21.67,16-6.77,53C109.62,83.28,98.33,98.62,83.21,82.6Z"/><path class="cls-10" d="M122.94,42.42s9.71-6.77,14.45,7C137.38,49.42,132.19,41.74,122.94,42.42Z"/><path class="cls-10" d="M71.47,41.52s-9.71-6.77-14.45,7C57,48.51,62.22,40.84,71.47,41.52Z"/><ellipse class="cls-11" cx="67.07" cy="66.57" rx="13.43" ry="18.96"/><ellipse class="cls-12" cx="68.76" cy="69.62" rx="11.74" ry="15.75"/><ellipse class="cls-13" cx="70.91" cy="71.54" rx="8.69" ry="11.21"/><ellipse class="cls-10" cx="71.36" cy="71.54" rx="5.72" ry="7.37"/><circle class="cls-5" cx="67.18" cy="73.57" r="1.81"/><ellipse class="cls-11" cx="126.66" cy="67.47" rx="13.43" ry="18.96"/><ellipse class="cls-12" cx="124.97" cy="70.52" rx="11.74" ry="15.75"/><ellipse class="cls-13" cx="122.82" cy="72.44" rx="8.69" ry="11.21"/><ellipse class="cls-10" cx="122.37" cy="72.44" rx="5.72" ry="7.37"/><path class="cls-9" d="M83.21,82.6s14.22-16.7,26.86,1.81C110.07,84.4,92.92,90,83.21,82.6Z"/><circle class="cls-5" cx="126.55" cy="74.47" r="1.81"/><path class="cls-14" d="M74.63,90.95s18.74-29.79,44.47.9c-1.67-2-17.22,14.77-19.47,16.53-5.28,4.11-11.42-4.62-14.75-8C84.2,99.73,74.72,90.81,74.63,90.95Z"/><path class="cls-15" d="M97,96.37s17.15-11.74,22.12-4.52c0,0-7.57,3.72-19.47,16.53,0,0-2.42,3.33-7.84-1,0,0-14.22-14.67-17.16-16.48C74.63,90.95,79.82,84.63,97,96.37Z"/><path class="cls-16" d="M80,92.53s14,12.42,16.25,14.9l16-14.9s-9.93,0-15.8,7C96.53,99.53,91.56,92.08,80,92.53Z"/><path class="cls-17" d="M96.3,101.56s5-6.77,8.58-2l-8.58,7.9-9-8.35S90.89,93.66,96.3,101.56Z"/></g></g></svg>