<svg xmlns="http://www.w3.org/2000/svg" viewBox="0 0 344.57 292.44"><defs><style>.cls-1{fill:#010101;}.cls-2{fill:#0e91d0;}.cls-3{fill:#9dc8d8;}.cls-4{fill:#020202;}.cls-5{fill:#fff;}.cls-6,.cls-7{fill:#030303;}.cls-7{stroke:#060606;stroke-miterlimit:10;stroke-width:0.21px;}</style></defs><title>smile</title><g id="Layer_2" data-name="Layer 2"><g id="Layer_1-2" data-name="Layer 1"><path class="cls-1" d="M2.35,238s-5.69-12.65.63-19c0,0,7.59-99.31,65.79-167,0,0,55-67.69,136-48.71,0,0,53.14,8.86,93,82.87,0,0,34.79,54.4,46.81,136,0,0,0,20.24-17.71,33.53,0,0-29.1,34.79-170.79,36.69C156.07,292.44,22.59,288,2.35,238Z"/><path class="cls-2" d="M12.39,234.1s-5.28-11.8.59-17.71c0,0,15.08-88.53,69.08-151.67,0,0,42.38-70.22,119.55-46.81,0,0,51.12,13.37,86.66,74,0,0,39.45,51,50.61,127.15,1.08,7.39-7.29,20.87-12.08,26-3.75,4.06-8,5.62-12.44,8.47-2.12,1.37-4.7,3.87-7.78,5.43-21.72,11-45.52,16.13-69.44,19.81-27.14,4.17-54.67,5.67-82.11,6C155,284.85,31.17,280.72,12.39,234.1Z"/><path class="cls-3" d="M158.6,24.86s-1.9,11.39,3.16,17.71c0,0,6.33,8.86,9.49,1.9,0,0,4.43-5.69,5.69-11.39,0,0,7-12.65-3.8-11.39C173.15,21.7,159.23,20.44,158.6,24.86Z"/><path class="cls-3" d="M32.43,176.75a38.14,38.14,0,0,1,2.29-7.86c2.46-5.78,5.33-11.76,8.17-17.39,10.86-21.59,25.62-41.73,40.93-60.3,12.59-15.27,25.67-32.47,41.24-44.82,2.74-2.17,9.3-7.36,11.76-4.39,7.85,9.45-.37,37.28-3.54,43.61a88.45,88.45,0,0,0-5.69,15.18c-1.43,5-2.44,7-6.32,10.12,0,0-20.24,13.92-31.63,48.71,0,0-1.9,28.46,9.49,20.24,0,0,71.48-12,141.7,0,0,0,92.36,13.29,89.83,46.81,0,0,7,23.41-79.7,43.65,0,0-178.39,29.73-233.42-31.63,0,0-9.49-17.08,3.16-28.47,0,0,8.22-5.69,8.22-11.39C31.11,191.71,31,184.06,32.43,176.75Z"/><ellipse class="cls-4" cx="271.19" cy="174.15" rx="13.28" ry="28.15"/><ellipse class="cls-5" cx="270.72" cy="175.1" rx="7.21" ry="18.03"/><ellipse class="cls-4" cx="202.09" cy="183.72" rx="13.28" ry="28.15"/><ellipse class="cls-5" cx="201.62" cy="184.67" rx="7.21" ry="18.03"/><path class="cls-6" d="M212.5,225.59s43.15,33.09,71.43-10.48C283.93,215.11,264.14,278.63,212.5,225.59Z"/><path class="cls-7" d="M284,129c-2.92-1.07-7.38-.47-10.34.07a17.91,17.91,0,0,0-8.18,4.32c-1.24,1-2.22,2.38-3.44,3.44-1.69,1.48-3.75,1.5-2.81-1.19.64-1.83,2.76-3.63,4.15-4.92C268.93,125.61,277.51,126.65,284,129Z"/><path class="cls-7" d="M184.48,141.9c2.57-1.75,7-2.25,10-2.45a17.92,17.92,0,0,1,9,2.2c1.46.71,2.73,1.77,4.17,2.5,2,1,4,.54,2.44-1.83-1.07-1.62-3.56-2.85-5.22-3.77C198.29,134.9,190.22,138,184.48,141.9Z"/></g></g></svg>