<svg xmlns="http://www.w3.org/2000/svg" viewBox="0 0 678.62 563.58"><defs><style>.cls-1{fill:#010101;}.cls-2,.cls-7{fill:#0e91d0;}.cls-3{fill:#9dc8d8;}.cls-4{fill:#040404;}.cls-5{fill:#030303;}.cls-6{fill:#fff;}.cls-7{stroke:#020202;stroke-linecap:round;stroke-miterlimit:10;stroke-width:0.86px;}</style></defs><title>sad</title><g id="Layer_2" data-name="Layer 2"><g id="Layer_1-2" data-name="Layer 1"><path class="cls-1" d="M4.53,458.74s-11-24.38,1.22-36.57c0,0,14.63-191.4,126.78-321.83,0,0,106.06-130.44,262.1-93.87,0,0,102.4,17.07,179.2,159.7,0,0,67,104.84,90.21,262.1,0,0,0,39-34.13,64.61,0,0-56.08,67-329.15,70.71C300.77,563.58,43.54,555,4.53,458.74Z"/><path class="cls-2" d="M23.88,451.14S13.7,428.4,25,417c0,0,29.05-170.61,133.12-292.3,0,0,81.68-135.32,230.4-90.21,0,0,98.51,25.77,167,142.63,0,0,76,98.32,97.52,245,2.09,14.24-14,40.21-23.28,50.19-7.23,7.82-15.49,10.83-24,16.31-4.09,2.64-9.06,7.46-15,10.46C549,520.26,503.08,530.23,457,537.31c-52.3,8-105.36,10.94-158.24,11.65C298.75,549,60.08,541,23.88,451.14Z"/><path class="cls-3" d="M305.64,47.92S302,69.86,311.74,82c0,0,12.19,17.07,18.29,3.66,0,0,8.54-11,11-21.94,0,0,13.41-24.39-7.31-21.94C333.68,41.82,306.86,39.39,305.64,47.92Z"/><path class="cls-3" d="M62.5,340.63a73.35,73.35,0,0,1,4.42-15.15c4.73-11.15,10.28-22.65,15.73-33.5,20.94-41.61,49.37-80.42,78.89-116.22C185.79,146.33,211,113.19,241,89.38c5.28-4.19,17.91-14.18,22.67-8.46,15.14,18.21-.71,71.84-6.81,84a170.12,170.12,0,0,0-11,29.26c-2.75,9.72-4.7,13.45-12.19,19.5,0,0-39,26.82-61,93.87,0,0-3.66,54.86,18.29,39,0,0,137.75-23.15,273.07,0,0,0,178,25.6,173.11,90.21,0,0,13.41,45.11-153.6,84.12,0,0-343.77,57.29-449.84-61,0,0-18.29-32.92,6.1-54.86,0,0,15.84-11,15.85-21.94C60,369.45,59.82,354.72,62.5,340.63Z"/><path class="cls-4" d="M353.63,291.95a102.88,102.88,0,0,0,24.5-7.23,78.59,78.59,0,0,0,20.06-12,62.41,62.41,0,0,0,8.43-8.6c2.69-3.33,6.28-13,11.93-11,4.76,1.69,1.55,10.76-.93,14-1.9,2.45-4.61,4.38-7,6.31a87.26,87.26,0,0,1-31.57,16.35C370.28,292.13,362.24,290.68,353.63,291.95Z"/><path class="cls-4" d="M599.33,258.72a102.78,102.78,0,0,1-25.49,1.2,79.1,79.1,0,0,1-22.89-4.75,63,63,0,0,1-10.79-5.35c-3.63-2.26-10.22-10.21-14.88-6.47-3.92,3.16,2.09,10.66,5.49,12.85,2.6,1.69,5.79,2.63,8.68,3.66a87.43,87.43,0,0,0,35.17,5.09C583.68,264.33,590.79,260.34,599.33,258.72Z"/><path class="cls-5" d="M442.25,351.11c0,18-4.17,34-10.62,43.91a25.08,25.08,0,0,0-6-2.57h0a28.92,28.92,0,0,0-7.94-1.1,28.1,28.1,0,0,0-9.77,1.69,21.72,21.72,0,0,0-5.6,2.93c-6.8-9.75-11.24-26.22-11.24-44.87,0-30,11.46-54.25,25.6-54.25S442.25,321.13,442.25,351.11Z"/><path class="cls-6" d="M427.63,376.59a59.55,59.55,0,0,1-2,15.85h0a28.92,28.92,0,0,0-7.94-1.1,28.1,28.1,0,0,0-9.77,1.69,57.7,57.7,0,0,1-2.19-16.45c0-15.15,4.92-27.41,11-27.41S427.63,361.45,427.63,376.59Z"/><path class="cls-5" d="M567.39,339.93c0,18.06-4.17,34.05-10.62,43.91a24.94,24.94,0,0,0-6-2.57h0a28.89,28.89,0,0,0-7.94-1.1,28,28,0,0,0-9.77,1.7,21.58,21.58,0,0,0-5.61,2.93c-6.8-9.74-11.24-26.22-11.24-44.87,0-30,11.46-54.24,25.6-54.24S567.39,310,567.39,339.93Z"/><path class="cls-6" d="M552.76,365.42a59.76,59.76,0,0,1-2,15.85h0a28.89,28.89,0,0,0-7.94-1.1,28,28,0,0,0-9.77,1.7,57.47,57.47,0,0,1-2.2-16.45c0-15.15,4.92-27.41,11-27.41S552.76,350.28,552.76,365.42Z"/><path class="cls-5" d="M460.48,470.53S500.23,408.1,554,454.14C554,454.14,502.34,377.9,460.48,470.53Z"/><path class="cls-7" d="M582.9,499.66s6.81-12-2.19-28.85c-7.19-13.42-4.12-24.34,4.4-36.22,5.66-7.89,17.66-15.39,20.61-25.18,4.2-13.92-.6-34-4.69-47.45-2.23-7.34-1.55-15.27,4.62-20.53,0,0-11.4-13.45,4.87-22.18,0,0,15.2-8.15,23.85,5.38,0,0,5.14-4.26,10.29,3.56,0,0,3.65-5.55,7.75,1.43,14.65,24.93,31.19,49.77,24.05,80.07-3.39,14.38-11.15,34.55-19.54,46.75a76.4,76.4,0,0,1-13.22,14.87,120.75,120.75,0,0,1-23.84,15.39,132.51,132.51,0,0,1-17,7C599.59,494.8,584.36,497.08,582.9,499.66Z"/><path class="cls-7" d="M642.39,393s-6.25-65.73-36.38-51.42"/><path class="cls-7" d="M645.52,329.35s16.71,24,22.63,39.4"/><path class="cls-7" d="M635.42,326.17s29.09,38.54,29,55.35"/><path class="cls-3" d="M610.32,376.75c2.34,7.91,6.09,16,7.06,18.84,4,11.69,5.34,25.85-3.53,35.67-8,8.89-22.68,12.93-24.7,26.36s11.31,13.61,21.2,9.86c37.87-14.36,30-64.19,17.8-93.59-1.93-4.65-6.78-15.81-13.47-15.63C606.81,358.48,607.6,367.5,610.32,376.75Z"/><path class="cls-3" d="M614.06,335.1c2.94.35,6.06-1.56,9.13-.49,2.05.72,4.07,2.83,5.55,4.37,5.5,5.74,7.7,12.68,11.67,19.27s7.48,2.85,5.69-3.2c-2.46-8.31-6.38-15.88-12.68-21.87-6.12-5.81-13.11-8.1-19.58-4.13-2.39,1.47-5,4.4-.82,5.8A4.81,4.81,0,0,0,614.06,335.1Z"/><path class="cls-7" d="M420.67,553s-9.65-9.92-5.23-28.46C419,509.74,413.22,500,402,490.65c-7.48-6.19-21-10.38-26.34-19.1-7.61-12.4-8.08-33.05-7.55-47.07.29-7.67-2.4-15.17-9.7-18.68,0,0,7.6-15.91-10.37-20.21,0,0-16.77-4-21.69,11.27,0,0-6-2.81-9,6.07,0,0-4.94-4.44-7.13,3.36-7.82,27.84-17.49,56.06-2.87,83.56,6.94,13,19.59,30.57,30.8,40.23a76.93,76.93,0,0,0,16.57,11,120.58,120.58,0,0,0,27,8.81,131.7,131.7,0,0,0,18.25,2.41C403.28,552.56,418.59,550.88,420.67,553Z"/><path class="cls-7" d="M336,465s-10.69-65.16,22.09-59"/><path class="cls-7" d="M316.72,404.26s-10.05,27.43-11.84,43.86"/><path class="cls-7" d="M325.68,398.61s-18.32,44.67-14,60.91"/><path class="cls-3" d="M362.83,441.13c-.24,8.24-1.82,17-2,20-.87,12.31,1.43,26.36,12.51,33.59,10,6.55,25.23,6.72,30.6,19.2s-7.46,16-18,14.94c-40.28-4.25-45.34-54.44-41-86,.68-5,2.52-17,9-18.54C361.58,422.57,363.12,431.5,362.83,441.13Z"/><path class="cls-3" d="M348.61,401.81c-2.76,1.09-6.26,0-8.94,1.85-1.8,1.22-3.22,3.78-4.25,5.64-3.86,7-4.21,14.22-6.38,21.61s-6.51,4.67-6.31-1.64c.26-8.67,2.12-17,6.69-24.39,4.44-7.18,10.61-11.17,17.88-9,2.68.81,5.94,3,2.28,5.4A5.73,5.73,0,0,1,348.61,401.81Z"/></g></g></svg>