<svg xmlns="http://www.w3.org/2000/svg" viewBox="0 0 727.34 549.51"><defs><style>.cls-1{fill:#010101;}.cls-2,.cls-8{fill:#0e91d0;}.cls-3{fill:#9dc8d8;}.cls-4{fill:#020202;}.cls-5{fill:#fff;}.cls-6,.cls-9{fill:none;}.cls-7{fill:#030303;}.cls-8{stroke:#060606;stroke-width:0.84px;}.cls-8,.cls-9{stroke-miterlimit:10;}.cls-9{stroke:#030303;stroke-linecap:round;stroke-width:0.64px;}</style></defs><title>passive</title><g id="Layer_2" data-name="Layer 2"><g id="Layer_1-2" data-name="Layer 1"><path class="cls-1" d="M4.42,447.29s-10.69-23.77,1.19-35.66c0,0,14.26-186.62,123.62-313.8,0,0,103.41-127.18,255.56-91.52,0,0,99.85,16.64,174.73,155.71,0,0,65.38,102.23,88,255.56,0,0,0,38-33.28,63,0,0-54.68,65.38-320.94,68.94C293.26,549.51,42.46,541.19,4.42,447.29Z"/><path class="cls-2" d="M23.28,439.88s-9.93-22.18,1.11-33.27c0,0,28.33-166.36,129.8-285,0,0,79.64-131.94,224.66-88,0,0,96,25.13,162.84,139.07,0,0,74.14,95.87,95.1,238.92,2,13.88-13.71,39.21-22.71,48.94C607,468.2,599,471.13,590.7,476.48c-4,2.58-8.83,7.27-14.62,10.2-40.82,20.6-85.55,30.32-130.48,37.22-51,7.83-102.73,10.66-154.29,11.35C291.3,535.25,58.58,527.49,23.28,439.88Z"/><path class="cls-3" d="M298,46.72S294.45,68.11,304,80c0,0,11.89,16.64,17.83,3.57,0,0,8.32-10.7,10.69-21.4,0,0,13.08-23.77-7.13-21.39C325.35,40.78,299.2,38.4,298,46.72Z"/><path class="cls-3" d="M60.93,332.13a71.94,71.94,0,0,1,4.31-14.78c4.61-10.87,10-22.09,15.34-32.67,20.42-40.57,48.14-78.42,76.92-113.31,23.65-28.68,48.23-61,77.5-84.23,5.14-4.08,17.46-13.83,22.1-8.25,14.76,17.75-.69,70.05-6.64,81.94a166,166,0,0,0-10.69,28.52c-2.68,9.49-4.58,13.12-11.89,19,0,0-38,26.15-59.43,91.52,0,0-3.57,53.49,17.83,38,0,0,134.31-22.58,266.26,0,0,0,173.54,25,168.79,88,0,0,13.07,44-149.77,82,0,0-335.2,55.87-438.61-59.43,0,0-17.83-32.1,5.94-53.49,0,0,15.45-10.7,15.46-21.4C58.45,360.23,58.33,345.86,60.93,332.13Z"/><path class="cls-4" d="M534.55,327.23c0,29.23-11.17,52.9-25,52.9s-25-23.67-25-52.9c0-27.35,9.8-49.85,22.37-52.6l26.66,38.48A110.75,110.75,0,0,1,534.55,327.23Z"/><path class="cls-5" d="M493.25,340.91c0,14.78,4.79,26.74,10.7,26.74s10.69-12,10.69-26.74-4.79-26.74-10.69-26.74S493.25,326.14,493.25,340.91Z"/><path class="cls-4" d="M361.31,345.66c0,29.23,11.18,52.9,25,52.9s25-23.67,25-52.9c0-27.35-9.8-49.86-22.38-52.61L362.2,331.54A110.72,110.72,0,0,0,361.31,345.66Z"/><path class="cls-5" d="M402.62,359.33c0,14.77-4.78,26.75-10.7,26.75s-10.7-12-10.7-26.75,4.79-26.74,10.7-26.74S402.62,344.56,402.62,359.33Z"/><line class="cls-6" x1="533.66" y1="313.12" x2="507" y2="274.63"/><path class="cls-1" d="M343.25,278.12s48-6.1,59.78,16.49c0,0,16.12,5.22,14.2-7.5C417.23,287.12,384.17,258.34,343.25,278.12Z"/><path class="cls-1" d="M533.06,249s-45.47,10.52-49.34,36.53c0,0-13.07,10.59-15.16-2.43C468.55,283.06,489.92,243.73,533.06,249Z"/><path class="cls-7" d="M436.67,454.61s25.81-31.76,56.17-7.25C492.85,447.36,464.8,407.25,436.67,454.61Z"/><path class="cls-8" d="M327.28,467.25S355.47,492.74,372,491c0,0-48.89,26.74-59.49,19s-.44-1.94-.44-1.94S308.77,469.43,327.28,467.25Z"/><path class="cls-8" d="M231.41,377.07s-47.84,22.43-23.26,97.61c0,0,27.19,80.69,82.48,55.21,0,0,56.76-19,33.07-60.48,0,0,26.74-34.59-16.74-58.63,0,0,11.63-26.4-15.82-33.73C291.13,377.05,271.23,361.22,231.41,377.07Z"/><path class="cls-9" d="M244.59,429s38.14-17,66-14.75"/><path class="cls-9" d="M270.1,475.51s37.25-15.27,53.59-6.09"/><path class="cls-3" d="M224.14,416.74s29.27-17.52,45.88-13.16c0,0,17.42-18.9-10.6-22.7C259.42,380.88,223.92,374,224.14,416.74Z"/><path class="cls-3" d="M220.56,466.84c7.09-21.84,26-34.2,44.84-38.25,9.53-2,20-2.28,29.85-1.61,6.16.41,23.18,3.61,26.15,12.56,5,15.09-11,12.76-17.27,14.26-20.61,4.91-42.14,4.68-61.41,14.84C238.14,471,214.79,484.64,220.56,466.84Z"/><path class="cls-3" d="M255.81,510.87a15.68,15.68,0,0,1-2.9-2.85c-4.23-5.41-.22-12.71,4.54-16.63,9.65-7.93,27.51-13.42,39.66-8.69,15.4,6-.09,21.54-8.43,26C279.42,513.66,265.19,517.87,255.81,510.87Z"/><path class="cls-8" d="M293.18,394s0,0,0,0c5,11.9,31.62,39.45,45.89,23.7,0,0,14-18.79-17.75-39.36C307.26,369.27,284.52,373.3,293.18,394Z"/><path class="cls-8" d="M617.66,411.75s-12,36.07-27.25,42.73c0,0,55.72-.82,61.11-12.81s-.57-1.9-.57-1.9S634.85,404.54,617.66,411.75Z"/><path class="cls-8" d="M656.64,286S709.32,282,725,359.52c0,0,16.11,83.61-44.56,88.69,0,0-58.76,11.41-58.58-36.33,0,0-40.31-16.92-14.33-59.26,0,0-23.14-17.25-2.85-37.16C604.66,315.46,614.18,291.88,656.64,286Z"/><path class="cls-9" d="M670.73,337.69s-41.54,4-64.72,19.71"/><path class="cls-9" d="M671.48,390.77s-39.94,5.07-49.64,21.11"/><path class="cls-3" d="M682.51,317s-34.11-.83-46.4,11.16c0,0-24.47-7.86-2-25C634.14,303.17,661.66,279.71,682.51,317Z"/><path class="cls-3" d="M710.32,358.81c-16.93-15.51-39.49-16.93-57.87-11.18-9.31,2.91-18.53,7.87-26.77,13.31-5.16,3.39-18.39,14.56-16.57,23.82,3.08,15.59,15.89,5.66,22.05,3.89,20.35-5.88,39-16.69,60.75-17.35C697.09,371.13,724.11,371.45,710.32,358.81Z"/><path class="cls-3" d="M701.33,414.5a15.16,15.16,0,0,0,1.13-3.91c1-6.79-6.07-11.17-12.15-12.23-12.31-2.13-30.56,1.89-38.79,12-10.43,12.82,10.7,18.7,20.16,18.46C682.17,428.56,696.62,425.21,701.33,414.5Z"/><path class="cls-8" d="M611.23,331.22s0,0,0,0c1.52,12.81-8.07,49.9-28.26,43.24,0,0-21.47-9.44-4-43C586.79,316.63,608.56,308.93,611.23,331.22Z"/></g></g></svg>