<svg xmlns="http://www.w3.org/2000/svg" viewBox="0 0 719.57 531.14"><defs><style>.cls-1{fill:#010101;}.cls-2,.cls-7{fill:#0e91d0;}.cls-3{fill:#9dc8d8;}.cls-4{fill:#030303;}.cls-5{fill:#fff;}.cls-6{fill:#ce3627;}.cls-7{stroke:#080707;stroke-miterlimit:10;stroke-width:0.81px;}</style></defs><title>Excited</title><g id="Layer_2" data-name="Layer 2"><g id="Layer_1-2" data-name="Layer 1"><path class="cls-1" d="M4.27,432.33s-10.34-23,1.15-34.47c0,0,13.78-180.37,119.49-303.31,0,0,100-122.93,247-88.46,0,0,96.5,16.08,168.88,150.51,0,0,63.19,98.8,85,247,0,0,0,36.76-32.17,60.89,0,0-52.85,63.19-310.19,66.63C283.45,531.14,41,523.1,4.27,432.33Z"/><path class="cls-2" d="M22.51,425.17S12.91,403.74,23.57,393C23.57,393,51,232.23,149,117.54c0,0,77-127.52,217.14-85,0,0,92.84,24.29,157.39,134.42,0,0,71.66,92.66,91.91,230.92,2,13.42-13.24,37.9-21.94,47.3-6.82,7.38-14.61,10.21-22.6,15.38-3.85,2.49-8.54,7-14.13,9.85-39.45,19.91-82.68,29.31-126.12,36-49.29,7.57-99.29,10.3-149.13,11C281.55,517.35,56.62,509.85,22.51,425.17Z"/><path class="cls-3" d="M288,45.16s-3.45,20.68,5.74,32.17c0,0,11.49,16.08,17.23,3.45,0,0,8.05-10.35,10.35-20.69,0,0,12.64-23-6.9-20.67C314.47,39.42,289.2,37.11,288,45.16Z"/><path class="cls-3" d="M58.9,321a69.71,69.71,0,0,1,4.16-14.28c4.47-10.5,9.69-21.35,14.84-31.58,19.73-39.21,46.53-75.79,74.34-109.52,22.87-27.73,46.62-59,74.91-81.41,5-3.94,16.88-13.36,21.36-8,14.27,17.15-.67,67.7-6.42,79.2A161.14,161.14,0,0,0,231.75,183c-2.59,9.17-4.43,12.68-11.49,18.38,0,0-36.76,25.28-57.44,88.47,0,0-3.45,51.7,17.23,36.76,0,0,129.82-21.83,257.35,0,0,0,167.74,24.13,163.14,85,0,0,12.64,42.51-144.76,79.27,0,0-324,54-423.94-57.44,0,0-17.23-31,5.74-51.71,0,0,14.94-10.33,14.94-20.68C56.5,348.18,56.37,334.3,58.9,321Z"/><path class="cls-4" d="M529.78,328.56s-17.25-7.39-27.59,7.09C502.19,335.65,508.94,315.73,529.78,328.56Z"/><path class="cls-4" d="M404.79,251.27c5.3-2.56,13.55-2.2,19.06-1.7,5.83.54,10.81,3.4,15.42,6.86,2.37,1.78,4.28,4.17,6.61,6,3.24,2.54,7,2.22,5.09-2.76-1.32-3.4-5.37-6.48-8-8.72C432.33,242,416.61,245.53,404.79,251.27Z"/><path class="cls-4" d="M534,304.46c-5.37-1.9-13-.59-18,.55-5.32,1.2-9.47,4.58-13.19,8.48-1.89,2-3.27,4.57-5.13,6.63-2.58,2.85-6.16,3-5.2-2.12.65-3.47,3.89-6.94,6-9.45C506.77,298.61,522,300.22,534,304.46Z"/><path class="cls-4" d="M435.63,274.9c-13.33,0-24.07,23-24,51.19,0,19.13,5.06,35.8,12.47,44.55a31.06,31.06,0,0,1,4.31-1.4,37,37,0,0,1,8.86-1.08,35.66,35.66,0,0,1,6.15.52,30.67,30.67,0,0,1,4.85,1.19c7-9,11.67-25.28,11.62-43.91C459.82,297.72,449,274.86,435.63,274.9Z"/><path class="cls-5" d="M443.44,368.91a35.93,35.93,0,0,0-6.15-.52,37,37,0,0,0-8.86,1.08A51.24,51.24,0,0,1,425,351.81c-.43-14.27,3.84-26,9.55-26.15s10.7,11.23,11.13,25.5A51.52,51.52,0,0,1,443.44,368.91Z"/><path class="cls-4" d="M455.71,393.45s29.2,30.43,47.46,19.48c0,0,14.61,30.43-4.87,28C498.3,440.92,454.49,434.84,455.71,393.45Z"/><path class="cls-6" d="M498.3,440.92s-7.62-27.55-34.15-19.45C464.15,421.47,473.67,436,498.3,440.92Z"/><path class="cls-2" d="M561,441.07s38.07-20.54,41.09-36.24c0,0,3,42.29,17.51,42.29C619.64,447.12,579.16,447.72,561,441.07Z"/><path class="cls-7" d="M686.1,312.39c10.37-19.91,34-71.64-3.66-78.57-15.36-2.83-30.22,4.76-35.28,19.69-5.74,16.92-3.51,36.65-1.54,54C649.85,345,686.1,312.39,686.1,312.39Z"/><path class="cls-7" d="M713.29,341.39s-23.56-58-86.39-27.19c0,0-36.85,13.9-24.77,44.71,0,0-27.8,23.56-1.82,52,.25.28-1.07,4.92-1.12,5.41a30,30,0,0,0,1.41,13.67c6.27,17.54,29.23,28,46.09,30.86,20.85,3.59,42-6.26,54.67-23,10.88-14.42,15.41-36.74,17.29-54.27C720.11,369.75,718.55,354.36,713.29,341.39Z"/><path class="cls-7" d="M679.45,358.31s-60.41-15.11-77.33.6c0,0-29,23.56-1.82,52,0,0,12.69-15.71,59.81-3.62"/><path class="cls-3" d="M681.89,261.56c-.74,11.2-11.69,26.22-23.84,16.75-10.15-7.91-2.69-24.9,7.36-29.43C677.78,243.3,682.53,251.82,681.89,261.56Z"/><path class="cls-3" d="M694.56,331.12c-15.67-15.36-35.32-17.58-55.27-8.93-5.41,2.34-23.08,9.42-23.08,16.29,0,9.94,22.13.82,26.76-.34,10.11-2.53,21.36-3.45,31.61-.67,5.81,1.57,19.37,13.59,24.65,10.12S697.54,334.05,694.56,331.12Z"/><path class="cls-3" d="M692.2,380.42a13.08,13.08,0,0,0-3.56-3.76c-11.53-8-27.36-11-41.51-10.07-10,.69-21.9,2.46-29.89,8.24-2.4,1.73-8.32,6.45-7.13,9.82,1.46,4.12,10.2,3.2,13.79,3.08a186.47,186.47,0,0,1,25.95-1.07c5.79.17,11.95.44,17.48,2.21,6.61,2.12,11.93,7.68,19.58,6.18C695.18,393.43,695.62,385.82,692.2,380.42Z"/><path class="cls-3" d="M681.27,425.59c.45,8.34-14.24,10.12-21.42,10.65a84.3,84.3,0,0,1-15.09-.31c-7.81-.81-18.14.1-23-6.13s-.68-13.08,7.2-15.63c10.51-3.39,23.45,0,33.85,2.07C668.83,417.47,680.91,419,681.27,425.59Z"/><path class="cls-2" d="M390.91,488.62s-38.06-20.54-41.08-36.25c0,0-3,42.29-17.52,42.29C332.31,494.66,372.79,495.27,390.91,488.62Z"/><path class="cls-7" d="M265.86,359.94c-10.39-19.91-34-71.64,3.65-78.58,15.36-2.83,30.22,4.76,35.28,19.7,5.74,16.92,3.5,36.65,1.54,54C302.1,392.56,265.86,359.94,265.86,359.94Z"/><path class="cls-7" d="M238.66,388.94s23.57-58,86.39-27.19c0,0,36.85,13.9,24.77,44.7,0,0,27.79,23.56,1.82,52-.25.27,1.07,4.92,1.13,5.4a30.12,30.12,0,0,1-1.42,13.67c-6.26,17.54-29.22,28-46.08,30.87-20.85,3.59-42.05-6.27-54.66-23-10.89-14.42-15.42-36.73-17.29-54.26C231.84,417.3,233.4,401.91,238.66,388.94Z"/><path class="cls-7" d="M272.5,405.85s60.41-15.1,77.33.6c0,0,29,23.56,1.82,52,0,0-12.69-15.71-59.81-3.63"/><path class="cls-3" d="M270.06,309.11c.73,11.2,11.69,26.22,23.84,16.75,10.15-7.91,2.69-24.9-7.36-29.44C274.17,290.85,269.43,299.37,270.06,309.11Z"/><path class="cls-3" d="M257.39,378.67c15.67-15.36,35.32-17.58,55.28-8.92,5.4,2.34,23.08,9.41,23.08,16.29,0,9.93-22.14.82-26.77-.34-10.11-2.53-21.36-3.44-31.61-.68-5.81,1.58-19.37,13.59-24.65,10.12S254.41,381.6,257.39,378.67Z"/><path class="cls-3" d="M259.75,428a13,13,0,0,1,3.56-3.75c11.53-8,27.36-11,41.51-10.07,10.05.69,21.9,2.45,29.89,8.23,2.39,1.73,8.31,6.46,7.12,9.83-1.46,4.12-10.2,3.2-13.78,3.07a184.07,184.07,0,0,0-26-1.06c-5.79.16-11.94.43-17.48,2.2-6.61,2.12-11.92,7.68-19.58,6.18C256.77,441,256.33,433.37,259.75,428Z"/><path class="cls-3" d="M270.68,473.14c-.45,8.33,14.23,10.12,21.42,10.65a84.83,84.83,0,0,0,15.09-.31c7.81-.81,18.13.1,23-6.13s.68-13.09-7.2-15.63c-10.51-3.38-23.44,0-33.85,2.08C283.13,465,271,466.59,270.68,473.14Z"/></g></g></svg>