<svg xmlns="http://www.w3.org/2000/svg" viewBox="0 0 659.84 560"><defs><style>.cls-1{fill:#010101;}.cls-2{fill:#0e91d0;}.cls-3{fill:#9dc8d8;}.cls-4{fill:#020202;}.cls-5{fill:#fff;}.cls-6{fill:#030303;}.cls-7{fill:#3f70b7;stroke:#3953a4;stroke-miterlimit:10;stroke-width:1.7px;}</style></defs><title>kindness pity</title><g id="Layer_2" data-name="Layer 2"><g id="Layer_1-2" data-name="Layer 1"><path class="cls-1" d="M4.5,455.83s-10.9-24.22,1.21-36.34c0,0,14.53-190.18,126-319.79,0,0,105.39-129.61,260.43-93.27,0,0,101.75,17,178.06,158.68,0,0,66.62,104.17,89.64,260.43,0,0,0,38.76-33.92,64.2,0,0-55.72,66.62-327.06,70.26C298.85,560,43.27,551.53,4.5,455.83Z"/><path class="cls-2" d="M23.73,448.28s-10.12-22.6,1.13-33.9c0,0,28.87-169.53,132.27-290.45,0,0,81.16-134.46,228.94-89.64,0,0,97.89,25.61,166,141.73,0,0,75.55,97.69,96.9,243.47,2.07,14.15-14,40-23.14,49.87-7.19,7.77-15.4,10.76-23.83,16.21-4.07,2.63-9,7.41-14.9,10.39-41.59,21-87.18,30.9-133,37.93-52,8-104.7,10.86-157.23,11.57C296.86,545.47,59.69,537.56,23.73,448.28Z"/><path class="cls-3" d="M303.7,47.61s-3.63,21.8,6.06,33.91c0,0,12.11,17,18.17,3.64,0,0,8.48-10.9,10.9-21.8,0,0,13.32-24.23-7.27-21.8C331.56,41.56,304.91,39.13,303.7,47.61Z"/><path class="cls-3" d="M62.09,338.46a73.62,73.62,0,0,1,4.39-15.05c4.7-11.08,10.21-22.51,15.64-33.3,20.81-41.34,49.06-79.91,78.39-115.47,24.1-29.23,49.15-62.17,79-85.83,5.24-4.16,17.81-14.09,22.53-8.41,15,18.09-.71,71.39-6.77,83.51A169.21,169.21,0,0,0,244.35,193c-2.74,9.66-4.67,13.37-12.11,19.38,0,0-38.77,26.65-60.56,93.27,0,0-3.64,54.51,18.17,38.76,0,0,136.87-23,271.33,0,0,0,176.85,25.44,172,89.64,0,0,13.33,44.82-152.62,83.58,0,0-341.6,56.93-447-60.57,0,0-18.17-32.71,6.06-54.51,0,0,15.75-10.9,15.75-21.81C59.57,367.11,59.43,352.46,62.09,338.46Z"/><path class="cls-4" d="M409.09,349.83c0,14.76-2.8,28.1-7.32,37.83a37.15,37.15,0,0,0-16.19-3.57,36.39,36.39,0,0,0-19.23,5.23c-5-9.84-8.14-23.89-8.14-39.49,0-29.76,11.39-53.91,25.44-53.91S409.09,320.07,409.09,349.83Z"/><path class="cls-5" d="M372.75,337.12c0,15.05,4.88,27.26,10.91,27.26s10.9-12.2,10.9-27.26-4.88-27.25-10.9-27.25S372.75,322.07,372.75,337.12Z"/><path class="cls-4" d="M544.75,333.49c0,15.23-3,29-7.78,38.79A37.27,37.27,0,0,0,520,368.34,36.75,36.75,0,0,0,502,372.89c-5-9.84-8.1-23.85-8.1-39.4,0-29.76,11.39-53.91,25.44-53.91S544.75,303.73,544.75,333.49Z"/><path class="cls-5" d="M509.93,322c0,15,4.88,27.25,10.9,27.25S531.74,337,531.74,322s-4.89-27.26-10.91-27.26S509.93,306.93,509.93,322Z"/><path class="cls-6" d="M402.33,455.22s69,48.91,115-17.28C517.32,437.94,484.68,534,402.33,455.22Z"/><path class="cls-7" d="M394.46,97.84c-95.13,0-172.25,21.23-172.25,47.42s77.12,47.42,172.25,47.42,172.26-21.23,172.26-47.42S489.6,97.84,394.46,97.84Zm0,65.41c-67.73,0-122.64-12.81-122.64-28.62S326.73,106,394.46,106s122.65,12.81,122.65,28.62S462.2,163.26,394.46,163.26Z"/></g></g></svg>